Source:  Liar Liar 1997 WS DVDRIP XviD iNT-EwDp

Encoded for PSP & iPod & Zune

Resolution: 320 X 240

I have tested this on a PSP Slim 2000 w/ 5.00 M33.6 (custom firmware) & a PSP 1000 5.00 (official Sony)

I haven't tested this on Zune or iPod Touch as I don't have one, but if someone would test it and let me know, it would be nice.

If you need/want to get in touch with me (request, reseed, etc.). Send an email to movi3sdir3ct@hotbox.ru

Please seed when finished downloading and leave a comment, request, etc. And above all ENJOY!

If anyone would like any tv show, movie, music video, or yes, even XXX, for PSP or any other handheld device for that matter. I would be more than happy to do it for you. Just leave a comment or send an email to movi3sdir3ct@hotbox.ru 

I check my email hourly.


GENRE: Comedy / Fantasy

P L O T

Fletcher Reed a fast talking attorney
habitual liar, and divorced father is an
incredibly successful lawyer who has built
his career by lying. He has a habit of
giving precedence to his job and always
breaking promises to be with his favorite
young son Max, but Fletcher lets Max down
once too often, for missing his own son's
birthday party.


General Nfo

Format                           : MPEG-4
Codec ID                         : M4V 
File size                        : 376 MiB
Duration                         : 1h 26mn
Overall bit rate                 : 608 Kbps
Movie name                       : Liar Liar (1997)
Encoded date                     : 2010
Writing application              : Lavf52.33.0

Video
ID                               : 1
Format                           : AVC
Format/Info                      : Advanced Video Codec
Format profile                   : Baseline@L1.3
Format settings, CABAC           : No
Format settings, ReFrames        : 1 frame
Codec ID                         : avc1
Codec ID/Info                    : Advanced Video Coding
Duration                         : 1h 26mn
Bit rate mode                    : Variable
Bit rate                         : 475 Kbps
Width                            : 320 pixels
Height                           : 240 pixels
Display aspect ratio             : 4:3
Frame rate mode                  : Constant
Frame rate                       : 29.970 fps
Color space                      : YUV
Chroma subsampling               : 4:2:0
Bit depth                        : 8 bits
Scan type                        : Progressive
Bits/(Pixel*Frame)               : 0.206
Stream size                      : 294 MiB (78%)

Audio
ID                               : 2
Format                           : AAC
Format/Info                      : Advanced Audio Codec
Format version                   : Version 4
Format profile                   : LC
Format settings, SBR             : No
Codec ID                         : 40
Duration                         : 1h 26mn
Bit rate mode                    : Variable
Bit rate                         : 128 Kbps
Channel(s)                       : 2 channels
Channel positions                : Front: L R
Sampling rate                    : 48.0 KHz
Stream size                      : 79.1 MiB (21%)


More of my stuff here - http://thepiratebay.org/user/The_Day_Walker/

My RSS Feed - http://rss.thepiratebay.org/user/ee512d573c1dcdf705dd6925ea080014/